<svg width="1600" height="1400" viewBox="0 0 1600 1400" fill="none" xmlns="http://www.w3.org/2000/svg">
  <defs>
    <linearGradient id="bg" x1="180" y1="80" x2="1430" y2="1300" gradientUnits="userSpaceOnUse">
      <stop stop-color="#081321"/>
      <stop offset="0.58" stop-color="#0B1B30"/>
      <stop offset="1" stop-color="#030912"/>
    </linearGradient>
    <pattern id="batikTile" width="320" height="320" patternUnits="userSpaceOnUse">
      <rect width="320" height="320" fill="none"/>
      <g stroke="#FF9A45" stroke-width="4.5" stroke-linecap="round" stroke-linejoin="round" opacity="0.88" fill="none">
        <path d="M160 24
                 C176 48 204 58 230 42
                 C248 31 252 10 236 -4
                 M160 24
                 C144 48 116 58 90 42
                 C72 31 68 10 84 -4"/>
        <path d="M160 296
                 C176 272 204 262 230 278
                 C248 289 252 310 236 324
                 M160 296
                 C144 272 116 262 90 278
                 C72 289 68 310 84 324"/>
        <path d="M24 160
                 C48 176 58 204 42 230
                 C31 248 10 252 -4 236
                 M24 160
                 C48 144 58 116 42 90
                 C31 72 10 68 -4 84"/>
        <path d="M296 160
                 C272 176 262 204 278 230
                 C289 248 310 252 324 236
                 M296 160
                 C272 144 262 116 278 90
                 C289 72 310 68 324 84"/>
        <path d="M112 112
                 C132 140 148 148 160 160
                 C172 148 188 140 208 112"/>
        <path d="M112 208
                 C132 180 148 172 160 160
                 C172 172 188 180 208 208"/>
        <path d="M160 72
                 C178 92 188 112 188 132
                 C188 148 178 160 160 160
                 C142 160 132 148 132 132
                 C132 112 142 92 160 72Z"/>
        <path d="M160 248
                 C142 228 132 208 132 188
                 C132 172 142 160 160 160
                 C178 160 188 172 188 188
                 C188 208 178 228 160 248Z"/>
        <path d="M72 160
                 C92 142 112 132 132 132
                 C148 132 160 142 160 160
                 C160 178 148 188 132 188
                 C112 188 92 178 72 160Z"/>
        <path d="M248 160
                 C228 178 208 188 188 188
                 C172 188 160 178 160 160
                 C160 142 172 132 188 132
                 C208 132 228 142 248 160Z"/>
        <circle cx="160" cy="160" r="18"/>
        <circle cx="160" cy="160" r="40" opacity="0.55"/>
        <path d="M160 118V202M118 160H202"/>
        <path d="M52 52
                 C76 58 90 74 96 98
                 C98 108 110 112 118 106
                 C128 98 126 84 116 76
                 C102 64 100 46 110 32"/>
        <path d="M268 52
                 C244 58 230 74 224 98
                 C222 108 210 112 202 106
                 C192 98 194 84 204 76
                 C218 64 220 46 210 32"/>
        <path d="M52 268
                 C76 262 90 246 96 222
                 C98 212 110 208 118 214
                 C128 222 126 236 116 244
                 C102 256 100 274 110 288"/>
        <path d="M268 268
                 C244 262 230 246 224 222
                 C222 212 210 208 202 214
                 C192 222 194 236 204 244
                 C218 256 220 274 210 288"/>
        <path d="M36 132
                 C60 132 76 122 88 100
                 C92 92 104 92 108 100
                 C114 112 110 124 100 132
                 C84 144 84 164 100 176
                 C110 184 114 196 108 208
                 C104 216 92 216 88 208
                 C76 186 60 176 36 176"/>
        <path d="M284 132
                 C260 132 244 122 232 100
                 C228 92 216 92 212 100
                 C206 112 210 124 220 132
                 C236 144 236 164 220 176
                 C210 184 206 196 212 208
                 C216 216 228 216 232 208
                 C244 186 260 176 284 176"/>
        <path d="M132 36
                 C132 60 122 76 100 88
                 C92 92 92 104 100 108
                 C112 114 124 110 132 100
                 C144 84 164 84 176 100
                 C184 110 196 114 208 108
                 C216 104 216 92 208 88
                 C186 76 176 60 176 36"/>
        <path d="M132 284
                 C132 260 122 244 100 232
                 C92 228 92 216 100 212
                 C112 206 124 210 132 220
                 C144 236 164 236 176 220
                 C184 210 196 206 208 212
                 C216 216 216 228 208 232
                 C186 244 176 260 176 284"/>
        <circle cx="56" cy="56" r="10"/>
        <circle cx="264" cy="56" r="10"/>
        <circle cx="56" cy="264" r="10"/>
        <circle cx="264" cy="264" r="10"/>
      </g>
      <g opacity="0.28" fill="#FFCC00">
        <circle cx="160" cy="160" r="7"/>
        <circle cx="56" cy="56" r="5"/>
        <circle cx="264" cy="56" r="5"/>
        <circle cx="56" cy="264" r="5"/>
        <circle cx="264" cy="264" r="5"/>
      </g>
    </pattern>
    <radialGradient id="glowA" cx="0" cy="0" r="1" gradientUnits="userSpaceOnUse" gradientTransform="translate(1220 180) rotate(122) scale(440 500)">
      <stop stop-color="#FFCC00" stop-opacity="0.18"/>
      <stop offset="1" stop-color="#FFCC00" stop-opacity="0"/>
    </radialGradient>
    <radialGradient id="glowB" cx="0" cy="0" r="1" gradientUnits="userSpaceOnUse" gradientTransform="translate(420 1180) rotate(30) scale(600 560)">
      <stop stop-color="#1C4D83" stop-opacity="0.24"/>
      <stop offset="1" stop-color="#1C4D83" stop-opacity="0"/>
    </radialGradient>
  </defs>

  <rect width="1600" height="1400" fill="url(#bg)"/>
  <rect width="1600" height="1400" fill="url(#batikTile)"/>
  <rect width="1600" height="1400" fill="url(#glowA)"/>
  <rect width="1600" height="1400" fill="url(#glowB)"/>

  <g opacity="0.14" stroke="#FFFFFF" stroke-width="1.5">
    <path d="M266 0V1400"/>
    <path d="M1334 0V1400"/>
    <path d="M0 218H1600"/>
    <path d="M0 1182H1600"/>
  </g>

  <rect x="80" y="80" width="1440" height="1240" rx="38" stroke="#FF9A45" stroke-opacity="0.26" stroke-width="2"/>
</svg>
